<svg xmlns="http://www.w3.org/2000/svg" viewBox="0 0 1440 320"><path fill="#5000ca" fill-opacity="1" d="M0,64L15,69.3C30,75,60,85,90,112C120,139,150,181,180,186.7C210,192,240,160,270,133.3C300,107,330,85,360,96C390,107,420,149,450,154.7C480,160,510,128,540,138.7C570,149,600,203,630,229.3C660,256,690,256,720,245.3C750,235,780,213,810,208C840,203,870,213,900,213.3C930,213,960,203,990,186.7C1020,171,1050,149,1080,160C1110,171,1140,213,1170,240C1200,267,1230,277,1260,245.3C1290,213,1320,139,1350,144C1380,149,1410,235,1425,277.3L1440,320L1440,0L1425,0C1410,0,1380,0,1350,0C1320,0,1290,0,1260,0C1230,0,1200,0,1170,0C1140,0,1110,0,1080,0C1050,0,1020,0,990,0C960,0,930,0,900,0C870,0,840,0,810,0C780,0,750,0,720,0C690,0,660,0,630,0C600,0,570,0,540,0C510,0,480,0,450,0C420,0,390,0,360,0C330,0,300,0,270,0C240,0,210,0,180,0C150,0,120,0,90,0C60,0,30,0,15,0L0,0Z"></path></svg>